<svg class="iconLeft" width="220" height="45.701" data-v-fde0c5aa="" version="1.1" viewBox="0 0 220 45.701" xmlns="http://www.w3.org/2000/svg">
 <g id="7271d3f8-857e-4482-bb0c-ff3ebed332bc" transform="matrix(3.0017 0 0 3.0017 45.631 -.78795)" fill="#f2b16e" data-v-fde0c5aa="">
  <path d="m3.65 8.4h3.67l0.3-1.68h-3.67l0.38-2.17h3.8l0.31-1.75h-5.81l-1.72 9.8h2zm4.27 1.68h2.8l0.17-1.61h-2.8zm6.02-1.68h3.67l0.3-1.68h-3.67l0.38-2.17h3.8l0.31-1.75h-5.81l-1.72 9.8h2zm4.27 1.68h2.8l0.17-1.61h-2.8zm6.02-1.68h3.67l0.3-1.68h-3.67l0.38-2.17h3.8l0.31-1.75h-5.81l-1.72 9.8h2zm4.27 1.68h2.8l0.17-1.61h-2.8zm6.02-1.68h3.67l0.3-1.68h-3.67l0.38-2.17h3.8l0.31-1.75h-5.81l-1.72 9.8h2zm10.31-2.24-0.21 1.22c-0.19-0.47-0.48-0.84-0.88-1.1-0.39-0.27-0.84-0.4-1.35-0.4-0.96 0-1.84 0.37-2.63 1.11-0.79 0.73-1.19 1.67-1.19 2.81 0 0.95 0.26 1.7 0.79 2.25s1.22 0.83 2.07 0.83c0.43 0 0.87-0.12 1.31-0.37 0.43-0.25 0.81-0.59 1.14-1.03l-0.2 1.12h1.89l1.15-6.44zm-4.31 3.6c0-0.71 0.21-1.26 0.64-1.63 0.43-0.38 0.95-0.57 1.55-0.57 0.47 0 0.85 0.11 1.14 0.33s0.43 0.56 0.43 1.03c0 0.74-0.23 1.3-0.68 1.69-0.46 0.39-0.97 0.59-1.52 0.59-0.46 0-0.84-0.13-1.13-0.39-0.29-0.25-0.43-0.6-0.43-1.05zm8.26 0.59-1.71 0.53c0.01 0.55 0.28 1.03 0.8 1.45 0.53 0.41 1.21 0.62 2.05 0.62 0.86 0 1.56-0.21 2.1-0.62 0.55-0.42 0.82-1.03 0.82-1.84 0-0.55-0.2-0.99-0.59-1.31-0.2-0.15-0.6-0.36-1.22-0.6-0.25-0.1-0.42-0.17-0.51-0.21s-0.19-0.09-0.32-0.16c-0.12-0.07-0.19-0.13-0.23-0.19-0.03-0.07-0.05-0.14-0.05-0.22 0-0.17 0.07-0.31 0.21-0.42 0.14-0.1 0.31-0.16 0.51-0.16 0.43 0 0.77 0.28 1.03 0.84l1.56-0.5c-0.11-0.51-0.39-0.93-0.84-1.26s-1.02-0.49-1.72-0.49c-0.82 0-1.47 0.2-1.96 0.6s-0.73 0.91-0.73 1.53c0 0.56 0.14 0.98 0.43 1.26s0.68 0.5 1.16 0.66c0.86 0.29 1.29 0.57 1.29 0.85 0 0.21-0.09 0.36-0.27 0.47s-0.4 0.16-0.67 0.16c-0.33 0-0.6-0.09-0.8-0.26s-0.32-0.42-0.34-0.73zm6.76-6.43-0.39 2.24h-1.05l-0.28 1.61h1.05l-0.86 4.83h1.89l0.86-4.83h1.05l0.28-1.61h-1.05l0.39-2.24z"/>
 </g>
 <g transform="matrix(.46723 0 0 .46723 -6.066 -.46723)" fill="#f2b16e" data-v-fde0c5aa="">
  <g clip-rule="evenodd">
   <path d="m12.983 10.59 17.018 88.223-5.872-59.049 29.021-1.892-0.054-9.883 11.453-26.989-10.927 17.977z"/>
   <path d="m59.389 54.548 5.16-53.541-8.74 39.716-19.612 1.045 1.57 20.462-7.766 36.583 12.057-39.899z"/>
   <path d="m62.8 67.182 0.549-10.453-15.979 3.755-0.032 11.797-17.337 26.532 21.68-27.616zm2.911-4.788 14.841-4.731 1.509-12.532-15.899 2.095zm6.359-17.892 10.988-1.417 1.581-10.278-8.079-0.373-12.011-31.434 8.43 30.967z"/>
   <path d="m87.413 31.294 1.256-9.506-9.544-2.694-14.576-18.094 14.483 22.437-0.422 7z"/>
  </g>
 </g>
</svg>
